# xmcd
#
# Track frame offsets: 
#        150
#        24275
#        42425
#        69500
#        88950
#        103200
#        127375
#        149975
#        166462
#        186750
#
# Disc length: 2717 seconds
#
# Revision: 0
# Processed by: cddbd v1.5.2PL0 Copyright (c) Steve Scherf et al.
# Submitted via: ExactAudioCopy v1.0b3
#
DISCID=9d0a9b0a
DTITLE=Greg Harris - Electro - Acoustics
DYEAR=1996
DGENRE=Country-Blues
TTITLE0=Unknown Artist - Into The Night
TTITLE1=Unknown Artist - Determined To Fly
TTITLE2=Unknown Artist - Dewey's Reel
TTITLE3=Unknown Artist - Slips Right Through Your Fingers
TTITLE4=Unknown Artist - 12 String Love
TTITLE5=Unknown Artist - Doug Tune
TTITLE6=Unknown Artist - Somethin's Got A Hold Of My Heart
TTITLE7=Unknown Artist - Valley Way
TTITLE8=Unknown Artist - Line In The Water
TTITLE9=Unknown Artist - Total Recall
EXTD=
EXTT0=
EXTT1=
EXTT2=
EXTT3=
EXTT4=
EXTT5=
EXTT6=
EXTT7=
EXTT8=
EXTT9=
PLAYORDER=
